<?xml version="1.0" encoding="UTF-8"?>
<svg xmlns="http://www.w3.org/2000/svg" xmlns:xlink="http://www.w3.org/1999/xlink" width="250" height="115" viewBox="0 0 250 115">
<defs>
<g>
<g id="glyph-0-0">
<path d="M 4.9375 -10.15625 C 4.890625 -10.140625 4.84375 -10.125 4.8125 -10.078125 C 4.765625 -10.015625 4.734375 -9.921875 4.6875 -9.859375 L 4.5 -9.453125 L 3.84375 -8.15625 L 0.78125 -2.03125 L -0.0625 -0.3125 C -0.140625 -0.171875 -0.28125 0.015625 -0.125 0.140625 C -0.09375 0.1875 -0.03125 0.203125 0.015625 0.203125 C 0.0625 0.1875 0.125 0.171875 0.15625 0.125 C 0.203125 0.0625 0.234375 -0.015625 0.265625 -0.09375 L 4.3125 -8.1875 L 4.890625 -9.3125 L 5.078125 -9.6875 L 5.15625 -9.875 C 5.171875 -9.90625 5.171875 -9.921875 5.1875 -9.9375 C 5.1875 -10.078125 5.078125 -10.171875 4.9375 -10.15625 Z M 4.9375 -10.15625 "/>
</g>
<g id="glyph-0-1">
<path d="M -0.03125 -10.15625 C -0.140625 -10.140625 -0.203125 -10.046875 -0.203125 -9.9375 C -0.1875 -9.828125 0.671875 -8.171875 0.78125 -7.921875 L 3.90625 -1.671875 L 4.828125 0.125 C 4.875 0.171875 4.9375 0.203125 5.03125 0.1875 C 5.078125 0.171875 5.109375 0.15625 5.140625 0.125 C 5.21875 0 5.15625 -0.078125 5.109375 -0.1875 L 5.015625 -0.375 L 4.171875 -2.046875 L 1.0625 -8.28125 L 0.140625 -10.09375 C 0.09375 -10.15625 0.03125 -10.171875 -0.03125 -10.15625 Z M -0.03125 -10.15625 "/>
</g>
<g id="glyph-0-2">
<path d="M -0.03125 -5.171875 C -0.171875 -5.140625 -0.25 -5 -0.171875 -4.875 C -0.140625 -4.828125 -0.09375 -4.796875 -0.046875 -4.765625 L 1.609375 -3.953125 L 7.6875 -0.890625 L 9.171875 -0.15625 L 9.640625 0.0625 C 9.71875 0.109375 9.8125 0.15625 9.890625 0.1875 C 9.9375 0.203125 9.984375 0.203125 10.03125 0.1875 C 10.09375 0.15625 10.140625 0.109375 10.15625 0.0625 C 10.21875 -0.15625 9.984375 -0.203125 9.828125 -0.296875 L 8.0625 -1.171875 L 2.140625 -4.125 L 0.75 -4.828125 L 0.296875 -5.046875 L 0.0625 -5.15625 C 0.03125 -5.1875 0 -5.1875 -0.03125 -5.171875 Z M -0.03125 -5.171875 "/>
</g>
<g id="glyph-1-0">
<path d="M 0.625 -0.5 C 0.46875 -0.5 0.34375 -0.375 0.34375 -0.21875 C 0.34375 -0.0625 0.46875 0.0625 0.625 0.0625 C 0.765625 0.0625 0.90625 -0.0625 0.90625 -0.21875 C 0.90625 -0.375 0.765625 -0.5 0.625 -0.5 Z M 0.625 -0.5 "/>
</g>
<g id="glyph-2-0">
<path d="M 10.125 -0.265625 C 9.484375 -0.3125 9.34375 -0.453125 8.828125 -1.515625 L 5.265625 -9.671875 L 4.984375 -9.671875 L 2 -2.625 C 1.078125 -0.53125 0.90625 -0.296875 0.21875 -0.265625 L 0.21875 0 L 3.0625 0 L 3.0625 -0.265625 C 2.359375 -0.265625 2.078125 -0.4375 2.078125 -0.859375 C 2.078125 -1.03125 2.125 -1.234375 2.1875 -1.421875 L 2.859375 -3.09375 L 6.609375 -3.09375 L 7.203125 -1.71875 C 7.375 -1.328125 7.46875 -0.96875 7.46875 -0.765625 C 7.46875 -0.40625 7.234375 -0.28125 6.46875 -0.265625 L 6.46875 0 L 10.125 0 Z M 3.09375 -3.6875 L 4.75 -7.625 L 6.40625 -3.6875 Z M 3.09375 -3.6875 "/>
</g>
<g id="glyph-2-1">
<path d="M 0.25 -9.21875 C 1.453125 -9.15625 1.609375 -9.015625 1.625 -7.9375 L 1.625 -1.5625 C 1.609375 -0.484375 1.421875 -0.3125 0.25 -0.265625 L 0.25 0 L 5.03125 0 C 6.140625 0 7.171875 -0.296875 7.703125 -0.78125 C 8.21875 -1.25 8.5 -1.890625 8.5 -2.578125 C 8.5 -3.21875 8.265625 -3.78125 7.796875 -4.203125 C 7.375 -4.59375 6.984375 -4.765625 6.046875 -4.984375 C 6.796875 -5.171875 7.09375 -5.328125 7.4375 -5.625 C 7.796875 -5.9375 8.015625 -6.453125 8.015625 -7.0625 C 8.015625 -8.65625 6.734375 -9.5 4.265625 -9.5 L 0.25 -9.5 Z M 3.078125 -4.671875 C 4.46875 -4.671875 5.140625 -4.59375 5.65625 -4.375 C 6.46875 -4.046875 6.859375 -3.453125 6.859375 -2.5625 C 6.859375 -1.796875 6.5625 -1.234375 5.984375 -0.90625 C 5.515625 -0.640625 4.9375 -0.53125 3.984375 -0.53125 C 3.28125 -0.53125 3.078125 -0.65625 3.078125 -1.125 Z M 3.078125 -5.234375 L 3.078125 -8.53125 C 3.09375 -8.84375 3.15625 -8.9375 3.40625 -8.953125 L 4.03125 -8.96875 C 5.625 -9.015625 6.5625 -8.28125 6.5625 -7 C 6.5625 -5.859375 5.828125 -5.265625 4.453125 -5.25 Z M 3.078125 -5.234375 "/>
</g>
<g id="glyph-2-2">
<path d="M 8.890625 -6.46875 L 8.765625 -9.703125 L 8.46875 -9.703125 C 8.375 -9.390625 8.140625 -9.21875 7.859375 -9.21875 C 7.734375 -9.21875 7.515625 -9.265625 7.296875 -9.34375 C 6.59375 -9.578125 5.875 -9.703125 5.203125 -9.703125 C 4.03125 -9.703125 2.84375 -9.25 1.953125 -8.46875 C 0.953125 -7.578125 0.40625 -6.25 0.40625 -4.671875 C 0.40625 -1.75 2.3125 0.203125 5.15625 0.203125 C 6.78125 0.203125 8.21875 -0.453125 9.078125 -1.625 L 8.828125 -1.875 C 7.78125 -0.859375 6.8125 -0.4375 5.625 -0.4375 C 4.71875 -0.4375 3.921875 -0.71875 3.296875 -1.265625 C 2.515625 -1.96875 2.0625 -3.25 2.0625 -4.859375 C 2.0625 -7.453125 3.40625 -9.125 5.484375 -9.125 C 6.296875 -9.125 7.046875 -8.828125 7.609375 -8.265625 C 8.078125 -7.796875 8.296875 -7.40625 8.5625 -6.46875 Z M 8.890625 -6.46875 "/>
</g>
<g id="glyph-2-3">
<path d="M 0.234375 -9.21875 C 1.296875 -9.109375 1.421875 -8.984375 1.4375 -7.9375 L 1.4375 -1.71875 C 1.421875 -0.5 1.3125 -0.375 0.234375 -0.265625 L 0.234375 0 L 4.25 0 L 4.25 -0.265625 C 3.109375 -0.296875 2.90625 -0.5 2.890625 -1.5625 L 2.890625 -4.171875 C 3.265625 -4.140625 3.515625 -4.125 3.890625 -4.125 C 5.015625 -4.125 5.78125 -4.28125 6.390625 -4.625 C 7.265625 -5.078125 7.78125 -5.953125 7.78125 -6.90625 C 7.78125 -7.5 7.578125 -8.046875 7.1875 -8.46875 C 6.609375 -9.09375 5.359375 -9.5 4.015625 -9.5 L 0.234375 -9.5 Z M 2.890625 -8.484375 C 2.890625 -8.859375 3 -8.96875 3.390625 -8.96875 C 5.328125 -8.96875 6.203125 -8.296875 6.203125 -6.8125 C 6.203125 -5.421875 5.359375 -4.703125 3.71875 -4.703125 C 3.421875 -4.703125 3.234375 -4.71875 2.890625 -4.75 Z M 2.890625 -8.484375 "/>
</g>
<g id="glyph-3-0">
<path d="M 3.265625 -1.765625 C 2.34375 -0.578125 2.21875 -0.453125 1.90625 -0.453125 C 1.765625 -0.453125 1.6875 -0.546875 1.6875 -0.71875 C 1.6875 -0.828125 1.734375 -1.015625 1.8125 -1.28125 C 1.828125 -1.328125 1.84375 -1.375 1.84375 -1.390625 L 1.84375 -1.421875 L 4 -9.71875 L 3.9375 -9.796875 C 3.0625 -9.59375 2.53125 -9.515625 1.6875 -9.40625 L 1.6875 -9.1875 C 2.375 -9.1875 2.671875 -9.09375 2.671875 -8.84375 C 2.671875 -8.796875 2.65625 -8.703125 2.625 -8.59375 L 0.640625 -1.015625 C 0.609375 -0.875 0.59375 -0.75 0.59375 -0.640625 C 0.59375 -0.109375 0.828125 0.15625 1.296875 0.15625 C 2.03125 0.15625 2.53125 -0.25 3.453125 -1.640625 Z M 3.265625 -1.765625 "/>
</g>
<g id="glyph-3-1">
<path d="M 5.765625 -1.59375 C 5.65625 -1.46875 5.578125 -1.375 5.453125 -1.203125 C 5.125 -0.78125 4.953125 -0.625 4.78125 -0.625 C 4.578125 -0.625 4.453125 -0.8125 4.34375 -1.21875 C 4.296875 -1.375 4.296875 -1.40625 4.28125 -1.453125 C 3.9375 -2.90625 3.765625 -3.578125 3.765625 -3.78125 C 4.421875 -4.90625 4.921875 -5.515625 5.171875 -5.515625 C 5.265625 -5.515625 5.390625 -5.484375 5.515625 -5.40625 C 5.6875 -5.3125 5.796875 -5.28125 5.921875 -5.28125 C 6.203125 -5.28125 6.40625 -5.5 6.40625 -5.796875 C 6.40625 -6.109375 6.171875 -6.328125 5.828125 -6.328125 C 5.1875 -6.328125 4.65625 -5.8125 3.65625 -4.28125 L 3.5 -5.0625 C 3.296875 -6.03125 3.140625 -6.328125 2.75 -6.328125 C 2.421875 -6.328125 1.96875 -6.203125 1.078125 -5.90625 C 0.984375 -5.875 0.984375 -5.875 0.921875 -5.859375 L 0.96875 -5.640625 C 1.53125 -5.78125 1.640625 -5.796875 1.78125 -5.796875 C 2.140625 -5.796875 2.21875 -5.671875 2.421875 -4.8125 L 2.84375 -3.046875 L 1.65625 -1.359375 C 1.359375 -0.9375 1.09375 -0.671875 0.9375 -0.671875 C 0.84375 -0.671875 0.703125 -0.71875 0.5625 -0.796875 C 0.375 -0.90625 0.234375 -0.953125 0.09375 -0.953125 C -0.1875 -0.953125 -0.390625 -0.734375 -0.390625 -0.4375 C -0.390625 -0.078125 -0.109375 0.15625 0.328125 0.15625 C 0.78125 0.15625 0.953125 0.03125 1.65625 -0.828125 C 2.046875 -1.3125 2.359375 -1.734375 2.953125 -2.53125 L 3.390625 -0.796875 C 3.578125 -0.0625 3.765625 0.15625 4.21875 0.15625 C 4.765625 0.15625 5.140625 -0.1875 5.96875 -1.484375 Z M 5.765625 -1.59375 "/>
</g>
<g id="glyph-4-0">
<path d="M 1.28125 0 L 4.296875 0 L 4.296875 -0.15625 C 3.453125 -0.15625 3.265625 -0.28125 3.265625 -0.8125 L 3.265625 -7.34375 L 3.171875 -7.375 L 1.203125 -6.375 L 1.203125 -6.234375 C 1.640625 -6.390625 1.890625 -6.46875 2 -6.46875 C 2.21875 -6.46875 2.328125 -6.296875 2.328125 -5.953125 L 2.328125 -1.015625 C 2.296875 -0.328125 2.109375 -0.171875 1.28125 -0.15625 Z M 1.28125 0 "/>
</g>
<g id="glyph-4-1">
<path d="M 5.1875 -1.5 L 5.03125 -1.546875 C 4.640625 -0.921875 4.515625 -0.84375 4 -0.828125 L 1.390625 -0.828125 L 3.234375 -2.75 C 4.203125 -3.765625 4.625 -4.59375 4.625 -5.4375 C 4.625 -6.53125 3.734375 -7.375 2.609375 -7.375 C 2 -7.375 1.4375 -7.125 1.03125 -6.703125 C 0.6875 -6.328125 0.53125 -5.984375 0.34375 -5.203125 L 0.5625 -5.140625 C 1 -6.21875 1.390625 -6.5625 2.15625 -6.5625 C 3.078125 -6.5625 3.6875 -5.9375 3.6875 -5.03125 C 3.6875 -4.171875 3.1875 -3.15625 2.265625 -2.1875 L 0.328125 -0.125 L 0.328125 0 L 4.578125 0 Z M 5.1875 -1.5 "/>
</g>
<g id="glyph-5-0">
<path d="M 3.78125 -9.84375 C 4.421875 -9.84375 5.0625 -9.53125 5.640625 -9.015625 C 6.484375 -8.1875 6.953125 -6.703125 6.953125 -4.8125 C 6.953125 -2.796875 6.421875 -1.296875 5.453125 -0.484375 C 4.90625 -0.03125 4.34375 0.1875 3.78125 0.1875 C 3.15625 0.1875 2.515625 -0.09375 1.9375 -0.640625 C 1.09375 -1.453125 0.609375 -2.9375 0.609375 -4.8125 C 0.609375 -6.84375 1.140625 -8.359375 2.125 -9.171875 C 2.671875 -9.609375 3.21875 -9.84375 3.78125 -9.84375 Z M 5.484375 -4.46875 L 2.09375 -4.46875 L 2.09375 -4.4375 C 2.125 -2.578125 2.390625 -1.4375 2.9375 -0.828125 C 3.203125 -0.546875 3.515625 -0.375 3.78125 -0.375 C 4.078125 -0.375 4.453125 -0.609375 4.703125 -0.9375 C 5.1875 -1.5625 5.4375 -2.6875 5.484375 -4.4375 Z M 5.484375 -5.28125 L 5.484375 -5.328125 C 5.4375 -7.09375 5.15625 -8.265625 4.625 -8.84375 C 4.359375 -9.140625 4.0625 -9.3125 3.78125 -9.3125 C 3.484375 -9.3125 3.125 -9.09375 2.859375 -8.75 C 2.375 -8.140625 2.125 -7 2.09375 -5.328125 L 2.09375 -5.28125 Z M 5.484375 -5.28125 "/>
</g>
</g>
</defs>
<g fill="rgb(0%, 0%, 0%)" fill-opacity="1">
<use xlink:href="#glyph-0-0" x="24.48" y="98.7"/>
</g>
<g fill="rgb(0%, 0%, 0%)" fill-opacity="1">
<use xlink:href="#glyph-0-0" x="29.401524" y="88.7374"/>
</g>
<g fill="rgb(0%, 0%, 0%)" fill-opacity="1">
<use xlink:href="#glyph-0-0" x="34.4426" y="78.7748"/>
</g>
<g fill="rgb(0%, 0%, 0%)" fill-opacity="1">
<use xlink:href="#glyph-0-0" x="39.364124" y="68.8122"/>
</g>
<g fill="rgb(0%, 0%, 0%)" fill-opacity="1">
<use xlink:href="#glyph-0-0" x="44.4052" y="58.8496"/>
</g>
<g fill="rgb(0%, 0%, 0%)" fill-opacity="1">
<use xlink:href="#glyph-0-0" x="49.326724" y="48.887"/>
</g>
<g fill="rgb(0%, 0%, 0%)" fill-opacity="1">
<use xlink:href="#glyph-0-0" x="54.3678" y="38.9244"/>
</g>
<g fill="rgb(0%, 0%, 0%)" fill-opacity="1">
<use xlink:href="#glyph-0-0" x="59.289324" y="28.9618"/>
</g>
<g fill="rgb(0%, 0%, 0%)" fill-opacity="1">
<use xlink:href="#glyph-0-0" x="62.048965" y="23.562071"/>
<use xlink:href="#glyph-0-1" x="66.969493" y="23.562071"/>
</g>
<g fill="rgb(0%, 0%, 0%)" fill-opacity="1">
<use xlink:href="#glyph-0-1" x="72.011565" y="33.524671"/>
</g>
<g fill="rgb(0%, 0%, 0%)" fill-opacity="1">
<use xlink:href="#glyph-0-1" x="76.933089" y="43.487271"/>
</g>
<g fill="rgb(0%, 0%, 0%)" fill-opacity="1">
<use xlink:href="#glyph-0-1" x="81.974165" y="53.449871"/>
</g>
<g fill="rgb(0%, 0%, 0%)" fill-opacity="1">
<use xlink:href="#glyph-0-1" x="86.895689" y="63.412471"/>
</g>
<g fill="rgb(0%, 0%, 0%)" fill-opacity="1">
<use xlink:href="#glyph-0-1" x="91.936765" y="73.375071"/>
</g>
<g fill="rgb(0%, 0%, 0%)" fill-opacity="1">
<use xlink:href="#glyph-0-1" x="96.858289" y="83.337671"/>
</g>
<g fill="rgb(0%, 0%, 0%)" fill-opacity="1">
<use xlink:href="#glyph-0-1" x="101.899365" y="93.300271"/>
</g>
<g fill="rgb(0%, 0%, 0%)" fill-opacity="1">
<use xlink:href="#glyph-0-1" x="104.539454" y="98.7"/>
</g>
<g fill="rgb(0%, 0%, 0%)" fill-opacity="1">
<use xlink:href="#glyph-0-2" x="66.980452" y="18.660472"/>
</g>
<g fill="rgb(0%, 0%, 0%)" fill-opacity="1">
<use xlink:href="#glyph-0-2" x="76.943052" y="23.581996"/>
</g>
<g fill="rgb(0%, 0%, 0%)" fill-opacity="1">
<use xlink:href="#glyph-0-2" x="86.905652" y="28.623072"/>
</g>
<g fill="rgb(0%, 0%, 0%)" fill-opacity="1">
<use xlink:href="#glyph-0-2" x="96.868252" y="33.544596"/>
</g>
<g fill="rgb(0%, 0%, 0%)" fill-opacity="1">
<use xlink:href="#glyph-0-2" x="106.830852" y="38.585672"/>
</g>
<g fill="rgb(0%, 0%, 0%)" fill-opacity="1">
<use xlink:href="#glyph-0-2" x="116.793452" y="43.507196"/>
</g>
<g fill="rgb(0%, 0%, 0%)" fill-opacity="1">
<use xlink:href="#glyph-0-2" x="126.756052" y="48.548272"/>
</g>
<g fill="rgb(0%, 0%, 0%)" fill-opacity="1">
<use xlink:href="#glyph-0-2" x="136.718652" y="53.469796"/>
</g>
<g fill="rgb(0%, 0%, 0%)" fill-opacity="1">
<use xlink:href="#glyph-0-2" x="146.681252" y="58.510872"/>
</g>
<g fill="rgb(0%, 0%, 0%)" fill-opacity="1">
<use xlink:href="#glyph-0-2" x="156.643852" y="63.432396"/>
</g>
<g fill="rgb(0%, 0%, 0%)" fill-opacity="1">
<use xlink:href="#glyph-0-2" x="166.606452" y="68.473472"/>
</g>
<g fill="rgb(0%, 0%, 0%)" fill-opacity="1">
<use xlink:href="#glyph-0-2" x="176.569052" y="73.394996"/>
</g>
<g fill="rgb(0%, 0%, 0%)" fill-opacity="1">
<use xlink:href="#glyph-0-2" x="186.531652" y="78.436072"/>
</g>
<g fill="rgb(0%, 0%, 0%)" fill-opacity="1">
<use xlink:href="#glyph-0-2" x="196.494252" y="83.357596"/>
</g>
<g fill="rgb(0%, 0%, 0%)" fill-opacity="1">
<use xlink:href="#glyph-0-2" x="206.576403" y="88.398672"/>
</g>
<g fill="rgb(0%, 0%, 0%)" fill-opacity="1">
<use xlink:href="#glyph-0-2" x="216.539003" y="93.320196"/>
</g>
<g fill="rgb(0%, 0%, 0%)" fill-opacity="1">
<use xlink:href="#glyph-0-2" x="226.501603" y="98.361272"/>
</g>
<g fill="rgb(0%, 0%, 0%)" fill-opacity="1">
<use xlink:href="#glyph-0-2" x="227.21891" y="98.719925"/>
</g>
<path fill-rule="nonzero" fill="rgb(0%, 0%, 0%)" fill-opacity="1" d="M 24.46875 98.351562 L 237.109375 98.351562 L 237.109375 98.832031 L 24.46875 98.832031 Z M 24.46875 98.351562 "/>
<g fill="rgb(0%, 0%, 0%)" fill-opacity="1">
<use xlink:href="#glyph-1-0" x="100.32" y="81.9"/>
</g>
<g fill="rgb(0%, 0%, 0%)" fill-opacity="1">
<use xlink:href="#glyph-1-0" x="100.080898" y="82.019551"/>
</g>
<g fill="rgb(0%, 0%, 0%)" fill-opacity="1">
<use xlink:href="#glyph-1-0" x="99.722244" y="82.258654"/>
</g>
<g fill="rgb(0%, 0%, 0%)" fill-opacity="1">
<use xlink:href="#glyph-1-0" x="99.483142" y="82.378205"/>
</g>
<g fill="rgb(0%, 0%, 0%)" fill-opacity="1">
<use xlink:href="#glyph-1-0" x="99.244039" y="82.617307"/>
</g>
<g fill="rgb(0%, 0%, 0%)" fill-opacity="1">
<use xlink:href="#glyph-1-0" x="98.885386" y="82.736858"/>
</g>
<g fill="rgb(0%, 0%, 0%)" fill-opacity="1">
<use xlink:href="#glyph-1-0" x="98.646283" y="82.975961"/>
</g>
<g fill="rgb(0%, 0%, 0%)" fill-opacity="1">
<use xlink:href="#glyph-1-0" x="98.28763" y="83.095512"/>
</g>
<g fill="rgb(0%, 0%, 0%)" fill-opacity="1">
<use xlink:href="#glyph-1-0" x="98.048527" y="83.334614"/>
</g>
<g fill="rgb(0%, 0%, 0%)" fill-opacity="1">
<use xlink:href="#glyph-1-0" x="97.689874" y="83.454166"/>
</g>
<g fill="rgb(0%, 0%, 0%)" fill-opacity="1">
<use xlink:href="#glyph-1-0" x="97.450771" y="83.693268"/>
</g>
<g fill="rgb(0%, 0%, 0%)" fill-opacity="1">
<use xlink:href="#glyph-1-0" x="97.211669" y="83.93237"/>
</g>
<g fill="rgb(0%, 0%, 0%)" fill-opacity="1">
<use xlink:href="#glyph-1-0" x="96.853015" y="84.171473"/>
</g>
<g fill="rgb(0%, 0%, 0%)" fill-opacity="1">
<use xlink:href="#glyph-1-0" x="96.613913" y="84.410575"/>
</g>
<g fill="rgb(0%, 0%, 0%)" fill-opacity="1">
<use xlink:href="#glyph-1-0" x="96.37481" y="84.649678"/>
</g>
<g fill="rgb(0%, 0%, 0%)" fill-opacity="1">
<use xlink:href="#glyph-1-0" x="96.135708" y="84.88878"/>
</g>
<g fill="rgb(0%, 0%, 0%)" fill-opacity="1">
<use xlink:href="#glyph-1-0" x="95.896606" y="85.127882"/>
</g>
<g fill="rgb(0%, 0%, 0%)" fill-opacity="1">
<use xlink:href="#glyph-1-0" x="95.537952" y="85.366985"/>
</g>
<g fill="rgb(0%, 0%, 0%)" fill-opacity="1">
<use xlink:href="#glyph-1-0" x="95.29885" y="85.486536"/>
</g>
<g fill="rgb(0%, 0%, 0%)" fill-opacity="1">
<use xlink:href="#glyph-1-0" x="95.059747" y="85.84519"/>
</g>
<g fill="rgb(0%, 0%, 0%)" fill-opacity="1">
<use xlink:href="#glyph-1-0" x="94.820645" y="86.084292"/>
</g>
<g fill="rgb(0%, 0%, 0%)" fill-opacity="1">
<use xlink:href="#glyph-1-0" x="94.701094" y="86.323394"/>
</g>
<g fill="rgb(0%, 0%, 0%)" fill-opacity="1">
<use xlink:href="#glyph-1-0" x="94.461991" y="86.562497"/>
</g>
<g fill="rgb(0%, 0%, 0%)" fill-opacity="1">
<use xlink:href="#glyph-1-0" x="94.222889" y="86.92115"/>
</g>
<g fill="rgb(0%, 0%, 0%)" fill-opacity="1">
<use xlink:href="#glyph-1-0" x="93.983786" y="87.160253"/>
</g>
<g fill="rgb(0%, 0%, 0%)" fill-opacity="1">
<use xlink:href="#glyph-1-0" x="93.744684" y="87.399355"/>
</g>
<g fill="rgb(0%, 0%, 0%)" fill-opacity="1">
<use xlink:href="#glyph-1-0" x="93.505582" y="87.758009"/>
</g>
<g fill="rgb(0%, 0%, 0%)" fill-opacity="1">
<use xlink:href="#glyph-1-0" x="93.38603" y="87.997111"/>
</g>
<g fill="rgb(0%, 0%, 0%)" fill-opacity="1">
<use xlink:href="#glyph-1-0" x="93.146928" y="88.236214"/>
</g>
<g fill="rgb(0%, 0%, 0%)" fill-opacity="1">
<use xlink:href="#glyph-1-0" x="92.907826" y="88.594867"/>
</g>
<g fill="rgb(0%, 0%, 0%)" fill-opacity="1">
<use xlink:href="#glyph-1-0" x="92.788274" y="88.83397"/>
</g>
<g fill="rgb(0%, 0%, 0%)" fill-opacity="1">
<use xlink:href="#glyph-1-0" x="92.668723" y="89.192623"/>
</g>
<g fill="rgb(0%, 0%, 0%)" fill-opacity="1">
<use xlink:href="#glyph-1-0" x="92.429621" y="89.431726"/>
</g>
<g fill="rgb(0%, 0%, 0%)" fill-opacity="1">
<use xlink:href="#glyph-1-0" x="92.31007" y="89.790379"/>
</g>
<g fill="rgb(0%, 0%, 0%)" fill-opacity="1">
<use xlink:href="#glyph-1-0" x="92.070967" y="90.029482"/>
</g>
<g fill="rgb(0%, 0%, 0%)" fill-opacity="1">
<use xlink:href="#glyph-1-0" x="91.951416" y="90.388135"/>
</g>
<g fill="rgb(0%, 0%, 0%)" fill-opacity="1">
<use xlink:href="#glyph-1-0" x="91.712314" y="90.627238"/>
</g>
<g fill="rgb(0%, 0%, 0%)" fill-opacity="1">
<use xlink:href="#glyph-1-0" x="91.592762" y="90.985891"/>
</g>
<g fill="rgb(0%, 0%, 0%)" fill-opacity="1">
<use xlink:href="#glyph-1-0" x="91.473211" y="91.344545"/>
</g>
<g fill="rgb(0%, 0%, 0%)" fill-opacity="1">
<use xlink:href="#glyph-1-0" x="91.35366" y="91.583647"/>
</g>
<g fill="rgb(0%, 0%, 0%)" fill-opacity="1">
<use xlink:href="#glyph-1-0" x="91.234109" y="91.942301"/>
</g>
<g fill="rgb(0%, 0%, 0%)" fill-opacity="1">
<use xlink:href="#glyph-1-0" x="91.114558" y="92.300954"/>
</g>
<g fill="rgb(0%, 0%, 0%)" fill-opacity="1">
<use xlink:href="#glyph-1-0" x="90.995006" y="92.659608"/>
</g>
<g fill="rgb(0%, 0%, 0%)" fill-opacity="1">
<use xlink:href="#glyph-1-0" x="90.875455" y="92.89871"/>
</g>
<g fill="rgb(0%, 0%, 0%)" fill-opacity="1">
<use xlink:href="#glyph-1-0" x="90.755904" y="93.257364"/>
</g>
<g fill="rgb(0%, 0%, 0%)" fill-opacity="1">
<use xlink:href="#glyph-1-0" x="90.636353" y="93.616018"/>
</g>
<g fill="rgb(0%, 0%, 0%)" fill-opacity="1">
<use xlink:href="#glyph-1-0" x="90.516802" y="93.974671"/>
</g>
<g fill="rgb(0%, 0%, 0%)" fill-opacity="1">
<use xlink:href="#glyph-1-0" x="90.39725" y="94.213774"/>
</g>
<g fill="rgb(0%, 0%, 0%)" fill-opacity="1">
<use xlink:href="#glyph-1-0" x="90.39725" y="94.572427"/>
</g>
<g fill="rgb(0%, 0%, 0%)" fill-opacity="1">
<use xlink:href="#glyph-1-0" x="90.39725" y="94.931081"/>
</g>
<g fill="rgb(0%, 0%, 0%)" fill-opacity="1">
<use xlink:href="#glyph-1-0" x="90.277699" y="95.289734"/>
</g>
<g fill="rgb(0%, 0%, 0%)" fill-opacity="1">
<use xlink:href="#glyph-1-0" x="90.277699" y="95.648388"/>
</g>
<g fill="rgb(0%, 0%, 0%)" fill-opacity="1">
<use xlink:href="#glyph-1-0" x="90.158148" y="96.007042"/>
</g>
<g fill="rgb(0%, 0%, 0%)" fill-opacity="1">
<use xlink:href="#glyph-1-0" x="90.158148" y="96.365695"/>
</g>
<g fill="rgb(0%, 0%, 0%)" fill-opacity="1">
<use xlink:href="#glyph-1-0" x="90.038597" y="96.604798"/>
</g>
<g fill="rgb(0%, 0%, 0%)" fill-opacity="1">
<use xlink:href="#glyph-1-0" x="90.038597" y="96.963451"/>
</g>
<g fill="rgb(0%, 0%, 0%)" fill-opacity="1">
<use xlink:href="#glyph-1-0" x="89.919046" y="97.322105"/>
</g>
<g fill="rgb(0%, 0%, 0%)" fill-opacity="1">
<use xlink:href="#glyph-1-0" x="89.919046" y="97.680758"/>
</g>
<g fill="rgb(0%, 0%, 0%)" fill-opacity="1">
<use xlink:href="#glyph-2-0" x="52.8" y="13.62"/>
</g>
<g fill="rgb(0%, 0%, 0%)" fill-opacity="1">
<use xlink:href="#glyph-2-1" x="10.320902" y="93.054909"/>
<use xlink:href="#glyph-2-2" x="237.089851" y="93.054909"/>
</g>
<g fill="rgb(0%, 0%, 0%)" fill-opacity="1">
<use xlink:href="#glyph-3-0" x="30.118658" y="56.099098"/>
</g>
<g fill="rgb(0%, 0%, 0%)" fill-opacity="1">
<use xlink:href="#glyph-4-0" x="34.08" y="58.38"/>
</g>
<g fill="rgb(0%, 0%, 0%)" fill-opacity="1">
<use xlink:href="#glyph-3-0" x="160.56" y="56.1"/>
</g>
<g fill="rgb(0%, 0%, 0%)" fill-opacity="1">
<use xlink:href="#glyph-4-1" x="164.52" y="58.38"/>
</g>
<g fill="rgb(0%, 0%, 0%)" fill-opacity="1">
<use xlink:href="#glyph-5-0" x="81.12" y="87.3"/>
</g>
<g fill="rgb(0%, 0%, 0%)" fill-opacity="1">
<use xlink:href="#glyph-3-1" x="58.438658" y="109.981342"/>
</g>
<g fill="rgb(0%, 0%, 0%)" fill-opacity="1">
<use xlink:href="#glyph-2-3" x="103.801342" y="112.864928"/>
</g>
</svg>
