<?xml version="1.0" encoding="UTF-8" standalone="no"?>
<svg
   width="42"
   height="18"
   viewBox="0 0 42 18"
   version="1.1"
   id="svg46"
   sodipodi:docname="vtrmc-2000-problem7-tile-2-1.svg"
   inkscape:version="1.2.2 (b0a8486541, 2022-12-01)"
   xmlns:inkscape="http://www.inkscape.org/namespaces/inkscape"
   xmlns:sodipodi="http://sodipodi.sourceforge.net/DTD/sodipodi-0.dtd"
   xmlns:xlink="http://www.w3.org/1999/xlink"
   xmlns="http://www.w3.org/2000/svg"
   xmlns:svg="http://www.w3.org/2000/svg">
  <sodipodi:namedview
     id="namedview48"
     pagecolor="#ffffff"
     bordercolor="#666666"
     borderopacity="1.0"
     inkscape:showpageshadow="2"
     inkscape:pageopacity="0.0"
     inkscape:pagecheckerboard="0"
     inkscape:deskcolor="#d1d1d1"
     showgrid="false"
     inkscape:zoom="32.309524"
     inkscape:cx="20.984525"
     inkscape:cy="9.0066323"
     inkscape:window-width="3440"
     inkscape:window-height="1371"
     inkscape:window-x="0"
     inkscape:window-y="0"
     inkscape:window-maximized="1"
     inkscape:current-layer="svg46" />
  <defs
     id="defs16">
    <g
       id="g14">
      <g
         id="glyph-0-0">
        <path
           d="M 2.40625 -0.46875 L 2.40625 13.859375 L 4.703125 13.859375 L 4.703125 13.359375 L 2.890625 13.359375 L 2.890625 0 L 4.703125 0 L 4.703125 -0.46875 Z M 2.40625 -0.46875 "
           id="path2" />
      </g>
      <g
         id="glyph-0-1">
        <path
           d="M 1.9375 -0.25 C 1.796875 -0.21875 1.71875 -0.125 1.71875 0.03125 L 1.71875 7.140625 C 1.71875 7.515625 2.25 7.515625 2.25 7.140625 L 2.25 0.03125 C 2.25 -0.140625 2.125 -0.28125 1.9375 -0.25 Z M 1.9375 -0.25 "
           id="path5" />
      </g>
      <g
         id="glyph-0-2">
        <path
           d="M 0.25 -0.46875 L 0.25 0 L 2.0625 0 L 2.0625 13.359375 L 0.25 13.359375 L 0.25 13.859375 L 2.546875 13.859375 L 2.546875 -0.46875 Z M 0.25 -0.46875 "
           id="path8" />
      </g>
      <g
         id="glyph-1-0">
        <path
           d="M 2.109375 -3.96875 L 1.84375 -3.9375 C 1.65625 -3.890625 1.46875 -3.8125 1.3125 -3.71875 C 0.203125 -3 0.234375 -1.375 1.375 -0.71875 C 1.59375 -0.59375 1.890625 -0.5 2.15625 -0.5 C 2.375 -0.5 2.578125 -0.515625 2.78125 -0.578125 C 3.734375 -0.921875 4.21875 -1.953125 3.84375 -2.890625 C 3.6875 -3.265625 3.421875 -3.5625 3.078125 -3.765625 C 2.8125 -3.90625 2.421875 -4.015625 2.109375 -3.96875 Z M 2.109375 -3.96875 "
           id="path11" />
      </g>
    </g>
  </defs>
  <g
     fill="#000000"
     fill-opacity="1"
     id="g20"
     transform="translate(-1.1142226,-2)">
    <use
       xlink:href="#glyph-0-0"
       x="1.152128"
       y="4.6566081"
       id="use18" />
  </g>
  <g
     fill="#000000"
     fill-opacity="1"
     id="g24"
     transform="translate(-1.1142226,-2)">
    <use
       xlink:href="#glyph-1-0"
       x="7.52"
       y="9.9399004"
       id="use22" />
  </g>
  <g
     fill="#000000"
     fill-opacity="1"
     id="g28"
     transform="translate(-1.1142226,-2)">
    <use
       xlink:href="#glyph-1-0"
       x="15.320768"
       y="16.6647"
       id="use26" />
  </g>
  <g
     fill="#000000"
     fill-opacity="1"
     id="g32"
     transform="translate(-1.1142226,-2)">
    <use
       xlink:href="#glyph-0-1"
       x="23.84"
       y="4.1799002"
       id="use30" />
  </g>
  <g
     fill="#000000"
     fill-opacity="1"
     id="g36"
     transform="translate(-1.1142226,-2)">
    <use
       xlink:href="#glyph-0-1"
       x="23.84"
       y="11.37693"
       id="use34" />
  </g>
  <g
     fill="#000000"
     fill-opacity="1"
     id="g40"
     transform="translate(-1.1142226,-2)">
    <use
       xlink:href="#glyph-1-0"
       x="30.799999"
       y="14.3799"
       id="use38" />
  </g>
  <g
     fill="#000000"
     fill-opacity="1"
     id="g44"
     transform="translate(-1.1142226,-2)">
    <use
       xlink:href="#glyph-0-2"
       x="38.240002"
       y="4.6599998"
       id="use42" />
  </g>
</svg>
