<?xml version="1.0" encoding="UTF-8"?>
<svg xmlns="http://www.w3.org/2000/svg" xmlns:xlink="http://www.w3.org/1999/xlink" width="179" height="68" viewBox="0 0 179 68">
<path fill="none" stroke-width="0.36" stroke-linecap="round" stroke-linejoin="miter" stroke="rgb(0%, 0%, 0%)" stroke-opacity="1" stroke-miterlimit="10" d="M 0.00190625 -0.00178125 L -25.486375 50.974781 M 0.00190625 -0.00178125 L 25.486281 50.974781 " transform="matrix(1, 0, 0, -1, 33.627, 57.799)"/>
<path fill-rule="nonzero" fill="rgb(0%, 0%, 0%)" fill-opacity="1" d="M 59.140625 6.976562 L 172.53125 6.976562 L 172.53125 6.570312 L 59.140625 6.570312 Z M 59.140625 6.976562 "/>
<path fill-rule="nonzero" fill="rgb(0%, 0%, 0%)" fill-opacity="1" d="M 115.636719 63.46875 L 116.039062 63.46875 L 116.039062 6.769531 L 115.636719 6.769531 Z M 115.636719 63.46875 "/>
<path fill-rule="nonzero" fill="rgb(0%, 0%, 0%)" fill-opacity="1" stroke-width="0.36" stroke-linecap="round" stroke-linejoin="miter" stroke="rgb(0%, 0%, 0%)" stroke-opacity="1" stroke-miterlimit="10" d="M -0.0003125 0.0009375 C -0.0003125 -0.795938 -0.644844 -1.440469 -1.441719 -1.440469 C -2.234688 -1.440469 -2.879219 -0.795938 -2.879219 0.0009375 C -2.879219 0.793906 -2.234688 1.438437 -1.441719 1.438437 C -0.644844 1.438437 -0.0003125 0.793906 -0.0003125 0.0009375 " transform="matrix(1, 0, 0, -1, 35.055, 57.79)"/>
<path fill-rule="nonzero" fill="rgb(0%, 0%, 0%)" fill-opacity="1" stroke-width="0.36" stroke-linecap="round" stroke-linejoin="miter" stroke="rgb(0%, 0%, 0%)" stroke-opacity="1" stroke-miterlimit="10" d="M 0.0009375 0.0009375 C 0.0009375 -0.795938 -0.643594 -1.440469 -1.440469 -1.440469 C -2.233438 -1.440469 -2.881875 -0.795938 -2.881875 0.0009375 C -2.881875 0.793906 -2.233438 1.438437 -1.440469 1.438437 C -0.643594 1.438437 0.0009375 0.793906 0.0009375 0.0009375 " transform="matrix(1, 0, 0, -1, 60.585, 6.79)"/>
<path fill-rule="nonzero" fill="rgb(0%, 0%, 0%)" fill-opacity="1" stroke-width="0.36" stroke-linecap="round" stroke-linejoin="miter" stroke="rgb(0%, 0%, 0%)" stroke-opacity="1" stroke-miterlimit="10" d="M 0.00015625 0.0009375 C 0.00015625 -0.795938 -0.644375 -1.440469 -1.44125 -1.440469 C -2.234219 -1.440469 -2.87875 -0.795938 -2.87875 0.0009375 C -2.87875 0.793906 -2.234219 1.438437 -1.44125 1.438437 C -0.644375 1.438437 0.00015625 0.793906 0.00015625 0.0009375 " transform="matrix(1, 0, 0, -1, 117.285, 6.79)"/>
</svg>
