<?xml version="1.0" encoding="UTF-8"?>
<svg xmlns="http://www.w3.org/2000/svg" xmlns:xlink="http://www.w3.org/1999/xlink" width="103" height="102" viewBox="0 0 103 102">
<defs>
<g>
<g id="glyph-0-0">
<path d="M 4.75 -1.859375 C 4.1875 -1.03125 3.75 -0.734375 3.078125 -0.734375 C 1.96875 -0.734375 1.21875 -1.703125 1.21875 -3.078125 C 1.21875 -4.3125 1.875 -5.15625 2.84375 -5.15625 C 3.28125 -5.15625 3.4375 -5.03125 3.546875 -4.578125 L 3.625 -4.3125 C 3.71875 -3.96875 3.9375 -3.765625 4.203125 -3.765625 C 4.5 -3.765625 4.75 -4 4.75 -4.265625 C 4.75 -4.9375 3.921875 -5.5 2.921875 -5.5 C 2.328125 -5.5 1.71875 -5.265625 1.234375 -4.828125 C 0.640625 -4.296875 0.296875 -3.484375 0.296875 -2.53125 C 0.296875 -0.984375 1.25 0.125 2.5625 0.125 C 3.109375 0.125 3.578125 -0.078125 4.015625 -0.4375 C 4.34375 -0.71875 4.5625 -1.046875 4.921875 -1.75 Z M 4.75 -1.859375 "/>
</g>
<g id="glyph-0-1">
<path d="M 4.875 -1.953125 C 4.296875 -1.046875 3.796875 -0.703125 3.03125 -0.703125 C 2.34375 -0.703125 1.828125 -1.046875 1.484375 -1.734375 C 1.265625 -2.1875 1.1875 -2.5625 1.15625 -3.3125 L 4.84375 -3.3125 C 4.75 -4.09375 4.625 -4.4375 4.328125 -4.8125 C 3.96875 -5.25 3.421875 -5.5 2.796875 -5.5 C 2.203125 -5.5 1.640625 -5.28125 1.1875 -4.875 C 0.625 -4.390625 0.296875 -3.53125 0.296875 -2.5625 C 0.296875 -0.90625 1.15625 0.125 2.53125 0.125 C 3.671875 0.125 4.5625 -0.578125 5.0625 -1.875 Z M 1.1875 -3.6875 C 1.3125 -4.625 1.71875 -5.0625 2.453125 -5.0625 C 3.171875 -5.0625 3.46875 -4.734375 3.625 -3.6875 Z M 1.1875 -3.6875 "/>
</g>
<g id="glyph-0-2">
<path d="M 0.21875 0 L 2.75 0 L 2.75 -0.171875 C 2.15625 -0.21875 1.953125 -0.375 1.953125 -0.796875 L 1.953125 -4.15625 C 2.53125 -4.703125 2.796875 -4.84375 3.1875 -4.84375 C 3.78125 -4.84375 4.0625 -4.46875 4.0625 -3.6875 L 4.0625 -1.1875 C 4.046875 -0.40625 3.890625 -0.21875 3.3125 -0.171875 L 3.3125 0 L 5.796875 0 L 5.796875 -0.171875 C 5.21875 -0.234375 5.078125 -0.375 5.0625 -0.96875 L 5.0625 -3.703125 C 5.0625 -4.828125 4.546875 -5.5 3.65625 -5.5 C 3.109375 -5.5 2.734375 -5.296875 1.921875 -4.53125 L 1.921875 -5.46875 L 1.84375 -5.5 C 1.21875 -5.265625 0.8125 -5.140625 0.1875 -4.953125 L 0.1875 -4.75 C 0.28125 -4.796875 0.375 -4.8125 0.515625 -4.8125 C 0.84375 -4.8125 0.953125 -4.625 0.953125 -4.046875 L 0.953125 -1.078125 C 0.9375 -0.375 0.8125 -0.21875 0.21875 -0.171875 Z M 0.21875 0 "/>
</g>
<g id="glyph-0-3">
<path d="M 3.046875 -5.375 L 1.84375 -5.375 L 1.84375 -6.765625 C 1.84375 -6.890625 1.8125 -6.921875 1.75 -6.921875 C 1.0625 -5.921875 0.703125 -5.515625 0.359375 -5.3125 C 0.234375 -5.21875 0.15625 -5.15625 0.15625 -5.078125 C 0.15625 -5.046875 0.171875 -5.015625 0.203125 -5 L 0.84375 -5 L 0.84375 -1.40625 C 0.84375 -0.390625 1.1875 0.125 1.90625 0.125 C 2.484375 0.125 2.9375 -0.171875 3.328125 -0.78125 L 3.171875 -0.921875 C 2.921875 -0.609375 2.71875 -0.5 2.46875 -0.5 C 2.015625 -0.5 1.84375 -0.828125 1.84375 -1.578125 L 1.84375 -5 L 3.046875 -5 Z M 3.046875 -5.375 "/>
</g>
<g id="glyph-0-4">
<path d="M 0.0625 0 L 2.921875 0 L 2.921875 -0.171875 C 2.125 -0.203125 1.9375 -0.375 1.90625 -1.078125 L 1.90625 -3.765625 C 1.90625 -4.140625 2.421875 -4.75 2.75 -4.75 C 2.828125 -4.75 2.921875 -4.6875 3.0625 -4.5625 C 3.234375 -4.390625 3.375 -4.328125 3.53125 -4.328125 C 3.828125 -4.328125 4 -4.53125 4 -4.859375 C 4 -5.265625 3.75 -5.5 3.34375 -5.5 C 2.84375 -5.5 2.515625 -5.234375 1.90625 -4.375 L 1.90625 -5.46875 L 1.859375 -5.5 C 1.1875 -5.234375 0.75 -5.0625 0.078125 -4.859375 L 0.078125 -4.65625 C 0.25 -4.703125 0.359375 -4.703125 0.5 -4.703125 C 0.796875 -4.703125 0.90625 -4.515625 0.90625 -4 L 0.90625 -1 C 0.890625 -0.375 0.8125 -0.3125 0.0625 -0.171875 Z M 0.0625 0 "/>
</g>
<g id="glyph-1-0">
<path d="M 3.3125 -9.953125 C 2.828125 -9.125 2.234375 -8.359375 1.59375 -7.640625 L 1.125 -7.125 L 0.640625 -6.640625 L 0.90625 -6.5625 L 1.390625 -6.40625 L 2.875 -5.90625 L 3.265625 -5.765625 L 3.484375 -5.703125 L 3.375 -6.34375 L 3.296875 -7.25 L 3.234375 -8.15625 L 3.234375 -8.71875 L 3.25 -8.828125 L 3.265625 -9.234375 Z M 3.3125 -9.953125 "/>
</g>
<g id="glyph-1-1">
<path d="M 0.640625 -3.3125 L 1.125 -2.828125 L 1.59375 -2.3125 C 2.234375 -1.609375 2.828125 -0.8125 3.3125 0 L 3.25 -0.984375 C 3.234375 -1.640625 3.234375 -2.28125 3.3125 -2.9375 L 3.40625 -3.78125 L 3.484375 -4.25 L 3.203125 -4.171875 L 2.734375 -4 L 1.25 -3.515625 L 0.875 -3.375 Z M 0.640625 -3.3125 "/>
</g>
<g id="glyph-1-2">
<path d="M 1.75 -3.875 C 1.734375 -3.78125 1.6875 -3.703125 1.671875 -3.609375 L 1.4375 -2.90625 C 1.203125 -2.28125 0.921875 -1.640625 0.59375 -1.0625 L 0.234375 -0.40625 L 0 0 L 0.40625 -0.234375 L 1.0625 -0.59375 C 1.640625 -0.921875 2.28125 -1.203125 2.90625 -1.4375 L 3.609375 -1.671875 C 3.703125 -1.6875 3.78125 -1.734375 3.875 -1.75 C 3.84375 -1.828125 2.46875 -3.171875 2.28125 -3.34375 C 2.203125 -3.421875 1.8125 -3.84375 1.75 -3.875 Z M 1.75 -3.875 "/>
</g>
</g>
</defs>
<path fill-rule="nonzero" fill="rgb(0%, 0%, 0%)" fill-opacity="1" d="M 10.148438 93.3125 L 95.226562 93.3125 L 95.226562 93.792969 L 10.148438 93.792969 Z M 10.148438 93.3125 "/>
<path fill-rule="nonzero" fill="rgb(0%, 0%, 0%)" fill-opacity="1" d="M 9.90625 8.472656 L 10.386719 8.472656 L 10.386719 93.550781 L 9.90625 93.550781 Z M 9.90625 8.472656 "/>
<path fill-rule="nonzero" fill="rgb(0%, 0%, 0%)" fill-opacity="1" d="M 10.148438 8.230469 L 95.226562 8.230469 L 95.226562 8.710938 L 10.148438 8.710938 Z M 10.148438 8.230469 "/>
<path fill-rule="nonzero" fill="rgb(0%, 0%, 0%)" fill-opacity="1" d="M 94.988281 8.472656 L 95.46875 8.472656 L 95.46875 93.550781 L 94.988281 93.550781 Z M 94.988281 8.472656 "/>
<path fill="none" stroke-width="0.36" stroke-linecap="round" stroke-linejoin="miter" stroke="rgb(0%, 0%, 0%)" stroke-opacity="1" stroke-miterlimit="10" d="M -0.000625 0.0009375 C -0.000625 -2.319375 -1.883438 -4.198281 -4.199844 -4.198281 C -6.51625 -4.198281 -8.399063 -2.319375 -8.399063 0.0009375 C -8.399063 2.317344 -6.51625 4.200156 -4.199844 4.200156 C -1.883438 4.200156 -0.000625 2.317344 -0.000625 0.0009375 M 84.960312 0.0009375 C 84.960312 -2.319375 83.0775 -4.198281 80.761094 -4.198281 C 78.440781 -4.198281 76.561875 -2.319375 76.561875 0.0009375 C 76.561875 2.317344 78.440781 4.200156 80.761094 4.200156 C 83.0775 4.200156 84.960312 2.317344 84.960312 0.0009375 M -0.000625 84.961875 C -0.000625 82.641562 -1.883438 80.75875 -4.199844 80.75875 C -6.51625 80.75875 -8.399063 82.641562 -8.399063 84.961875 C -8.399063 87.278281 -6.51625 89.161094 -4.199844 89.161094 C -1.883438 89.161094 -0.000625 87.278281 -0.000625 84.961875 M 84.960312 84.961875 C 84.960312 82.641562 83.0775 80.75875 80.761094 80.75875 C 78.440781 80.75875 76.561875 82.641562 76.561875 84.961875 C 76.561875 87.278281 78.440781 89.161094 80.761094 89.161094 C 83.0775 89.161094 84.960312 87.278281 84.960312 84.961875 M 38.280625 42.481406 L 39.839219 47.161094 M 41.401719 51.961875 L 42.960312 56.641562 M 44.518906 61.32125 L 46.081406 66.000937 M 47.761094 70.801719 L 49.319687 75.481406 M 50.878281 80.278281 L 52.440781 84.961875 M 52.440781 84.961875 L 54.718125 80.278281 M 57.600937 74.641562 L 59.878281 69.961875 M 62.878281 64.200156 L 65.159531 59.520469 M 68.038437 53.75875 L 70.319687 49.079062 M 73.198594 43.438437 L 75.479844 38.75875 M 78.479844 33.000937 L 80.761094 28.32125 M 80.761094 28.32125 L 78.120469 25.680625 M 75.120469 22.559531 L 72.479844 19.918906 M 69.479844 16.918906 L 66.839219 14.278281 " transform="matrix(1, 0, 0, -1, 14.36, 93.54)"/>
<g fill="rgb(0%, 0%, 0%)" fill-opacity="1">
<use xlink:href="#glyph-0-0" x="24.32" y="62.46"/>
<use xlink:href="#glyph-0-1" x="29.628109" y="62.46"/>
<use xlink:href="#glyph-0-2" x="34.936218" y="62.46"/>
<use xlink:href="#glyph-0-3" x="40.913818" y="62.46"/>
<use xlink:href="#glyph-0-1" x="44.237363" y="62.46"/>
<use xlink:href="#glyph-0-4" x="49.545472" y="62.46"/>
</g>
<path fill="none" stroke-width="0.36" stroke-linecap="round" stroke-linejoin="miter" stroke="rgb(0%, 0%, 0%)" stroke-opacity="1" stroke-miterlimit="10" d="M -0.00046875 0.0009375 L 5.519062 16.801719 " transform="matrix(1, 0, 0, -1, 55.52, 42.54)"/>
<g fill="rgb(0%, 0%, 0%)" fill-opacity="1">
<use xlink:href="#glyph-1-0" x="57.8" y="35.58"/>
</g>
<path fill="none" stroke-width="0.36" stroke-linecap="round" stroke-linejoin="miter" stroke="rgb(0%, 0%, 0%)" stroke-opacity="1" stroke-miterlimit="10" d="M 0.0003125 0.00171875 L 5.519844 -16.799062 " transform="matrix(1, 0, 0, -1, 75.32, 22.74)"/>
<g fill="rgb(0%, 0%, 0%)" fill-opacity="1">
<use xlink:href="#glyph-1-1" x="77.72" y="39.78"/>
</g>
<path fill="none" stroke-width="0.36" stroke-linecap="round" stroke-linejoin="miter" stroke="rgb(0%, 0%, 0%)" stroke-opacity="1" stroke-miterlimit="10" d="M 0.0009375 0.00109375 L -5.518594 -5.518438 " transform="matrix(1, 0, 0, -1, 80.96, 79.38)"/>
<g fill="rgb(0%, 0%, 0%)" fill-opacity="1">
<use xlink:href="#glyph-1-2" x="75.32" y="85.14"/>
</g>
</svg>
